<svg width="472" height="565" viewBox="0 0 472 565" fill="none" xmlns="http://www.w3.org/2000/svg">
<path d="M230.399 0.329529C238.79 -0.843926 248.862 1.16746 256.545 5.55121C258.451 6.63841 262.037 9.55301 264.514 12.0278L269.018 16.5287L271.544 21.8217C274.621 28.2669 275.444 32.0248 275.444 39.6176C275.444 46.5637 274.337 51.3127 271.235 57.6664L268.935 62.3784L259.38 71.9301L248.04 77.6371L247.87 92.0356C247.777 99.9542 247.919 106.65 248.186 106.914C248.453 107.179 250.939 107.863 253.71 108.434C256.482 109.006 260.876 110.16 263.475 111C266.073 111.84 272.211 113.219 277.113 114.064C302.002 118.352 323.814 125.316 343.938 135.399C392.942 159.952 426.738 200.049 441.725 251.42L444.105 259.581L447.974 260.37C464.372 263.716 472.011 280.983 472 314.681C471.993 336.665 468.25 351.125 460.405 359.471C457.006 363.088 450.96 366.482 447.918 366.483L446.198 366.484L445.891 367.902C445.722 368.682 445.27 371.589 444.887 374.362C443.865 381.745 441.441 392.261 438.857 400.515C422.069 454.145 382.143 496.318 313.881 532.53C288.514 545.986 247.5 559.5 237.78 565C227.25 558.5 193.567 549.265 167.399 536.299C140.348 522.895 120.519 510.58 101.724 495.507C58.5154 460.859 33.983 420.945 27.2842 374.395L26.1943 366.819L23.4854 366.357C11.6673 364.339 3.84342 351.794 1.00781 330.317L0 322.684L0.324219 310.395C0.781595 293.087 2.83549 282.634 7.54785 273.625C11.5155 266.041 17.7898 261.171 24.8135 260.225L27.7578 259.829L29.0557 255.019C49.1286 180.65 109.159 129.025 192.6 114.376C196.758 113.646 202.428 112.35 205.2 111.496C207.972 110.642 213.359 109.31 217.17 108.537L224.1 107.13L224.392 77.5317L218.753 74.851C208.974 70.2 201.772 62.0926 198.185 51.6928L196.446 46.6508V32.1567L198.146 27.2543C203.191 12.7154 215.539 2.40803 230.399 0.329529ZM380.616 391.208C371.428 398.989 356.707 404.174 339.856 405.565L331.199 406.279L284.49 405.488L237.78 404.698L129.6 405.787L124.245 404.698C111.395 402.085 101.873 398.023 94.1836 391.875L91.5283 389.752L86.3086 394.996C78.3563 402.985 70.7356 406.415 58.8555 407.351L53.6299 407.762L58.3271 417.216C65.9022 432.463 74.4656 444.429 88.5176 459.404C98.2781 469.805 112.404 482.071 124.875 490.977L128.34 493.452L126.549 491.063C114.719 475.292 102.971 453.15 96.7539 434.913C95.3856 430.898 95.2549 428.517 96.5273 430.791C97.3192 432.207 112.319 452.6 118.994 461.336C135.601 483.071 150.821 498.753 167.399 511.213C171.732 514.469 181.016 520.987 183.226 522.323C183.614 522.557 182.307 520.274 180.321 517.248C172.626 505.52 163.861 487.574 157.779 471.099C153.792 460.296 153.566 459.551 154.373 459.838C154.731 459.966 160.606 467.302 167.429 476.141C190.734 506.335 198.042 515.199 208.637 526.131C220.514 538.386 233.405 547.984 237.986 547.985C241.866 547.985 253.208 539.909 262.816 530.302C273.388 519.733 282.828 507.869 305.156 477.086C322.357 453.373 322.266 453.458 317.319 465.827C309.581 485.175 296.975 507.951 286.062 522.303C284.02 524.99 282.595 527.188 282.896 527.188C283.56 527.188 292.952 521.323 298.682 517.331C313.16 507.241 329.958 491.757 343.663 475.87C350.788 467.61 362.996 451.665 370.599 440.691C372.46 438.004 374.198 435.807 374.462 435.807C375.549 435.807 370.166 449.487 364.836 460.269C361.118 467.79 356.651 475.514 352.011 482.438L344.891 493.064L349.385 489.803C360.402 481.808 370.395 473.28 380.099 463.591C396.289 447.425 405.344 435.204 414.218 417.54L419.12 407.781L413.274 407.039C402.298 405.647 395.49 402.297 387.861 394.538L382.783 389.373L380.616 391.208ZM170.245 427.015C173.879 426.186 176.375 427.01 180.63 430.445C191.17 438.954 206.698 445.929 221.58 448.838L227.25 449.947L249.93 449.924L256.545 448.499C269.967 445.609 283.25 439.886 291.824 433.298C294.076 431.568 296.997 429.392 298.314 428.463L300.709 426.774L303.354 426.778C308.265 426.784 311.664 429.563 312.414 434.187C312.97 437.615 311.181 440.934 307.019 444.201C274.035 470.083 228.17 474.933 189.398 456.638C181.025 452.687 169.244 444.936 166.194 441.372L163.935 438.731V432.007L165.992 429.761C167.184 428.46 168.973 427.305 170.245 427.015ZM283.867 133.305C282.91 133.305 282.001 134.146 280.869 136.079C277.165 142.4 268.425 147.667 257.175 150.354L251.189 151.784L226.348 152.358L219.868 151.288C212.137 150.01 205.211 147.802 200.475 145.103C196.426 142.796 191.575 138.047 190.421 135.259C189.869 133.925 189.187 133.313 188.271 133.327C187.534 133.338 182.11 134.585 176.22 136.097C119.322 150.706 76.2443 185.923 54.752 235.4C51.7355 242.343 47.71 253.705 45.4326 261.701L44.6729 264.368L47.5508 267.446C52.2165 272.436 55.2027 279.414 57.5684 290.858L58.8057 296.845L59.4941 323.314L58.5127 330.247C56.5156 344.357 52.8468 353.451 46.6094 359.759L42.9756 363.433V365.164C42.9756 367.537 45.2364 379.768 46.5928 384.732L47.7041 388.8L49.2773 389.238C50.1424 389.478 53.1452 389.704 55.9492 389.739C64.3463 389.842 70.9861 386.82 76.1797 380.53C79.7748 376.176 79.7743 376.176 78.042 373.219C67.1292 354.591 63.4084 320.892 69.123 292.434C71.1529 282.324 73.2012 276.169 77.3057 267.843C86.2875 249.623 100.497 238.413 121.055 233.329L126.45 231.995L231.029 231.772C301.913 231.621 337.876 231.765 342.644 232.221C371.069 234.936 391.559 250.263 400.866 275.774C411.705 305.485 410.317 344.724 397.507 370.723L394.953 375.908L396.748 378.499C399.252 382.114 403.49 385.697 407.666 387.728L411.209 389.452L417.32 389.469C420.701 389.479 423.721 389.196 424.081 388.836C424.882 388.032 427.564 376.261 428.612 368.946L429.389 363.53L425.946 360.086C417.022 351.159 412.826 333.869 413.595 309.191C414.216 289.243 417.835 275.818 424.867 267.371L427.369 264.366L426.93 262.33C425.158 254.117 418.131 235.881 412.425 224.686C392.474 185.54 354.244 154.413 307.588 139.325C299.765 136.795 286.014 133.305 283.867 133.305ZM238.59 249.495C179.689 249.445 129.937 249.637 128.025 249.923C111.225 252.442 97.8198 262.954 91.1689 278.829C83.8774 296.231 81.9867 322.906 86.4697 345.12C89.2575 358.935 95.1 369.452 104.174 376.989C108.268 380.389 117.406 384.906 122.985 386.287C131.737 388.453 141.24 388.618 243.314 388.39L293.557 388.278L343.799 388.166L349.674 386.818C371.695 381.763 384.911 366.21 389.176 340.33C390.557 331.951 391.007 317.589 390.172 308.576C387.152 275.964 374.635 257.693 350.729 250.997L345.689 249.585L238.59 249.495ZM345.529 262.791C347.867 263.287 351.694 264.602 354.034 265.713L358.289 267.735L367.862 277.309L370.799 283.295C375.822 293.533 377.504 302.601 377.504 319.438C377.504 336.483 375.937 345.632 371.39 355.14L369.129 359.867L359.366 369.657L354.732 371.78C352.184 372.948 348.547 374.23 346.648 374.629L343.199 375.355L130.324 375.284L126.497 374.296C120.175 372.665 114.649 369.356 109.983 364.409L105.792 359.964L103.032 354.135C101.515 350.929 99.6938 345.802 98.9863 342.743L97.7002 337.179L97.3447 324.146C96.8067 304.465 98.4759 293.896 103.895 282.665L106.783 276.678L111.262 272.199C116.244 267.215 120.301 264.872 126.993 263.117L131.49 261.938L341.279 261.891L345.529 262.791ZM324.293 280.39C317.282 277.179 307.975 275.808 300.959 276.954C295.509 277.843 292.294 278.923 287.1 281.604L282.06 284.206L272.422 293.806L269.513 299.788C266.136 306.731 264.757 312.458 264.757 319.533C264.757 343.493 283.479 362.313 307.26 362.257C321.204 362.224 334.335 354.968 342.138 342.983C356.324 321.19 347.755 291.135 324.293 280.39ZM178.067 278.005C173.209 276.751 164.657 276.273 160.073 276.998C142.992 279.703 129.619 291.764 125.142 308.504C124.43 311.164 124.046 314.922 124.046 319.218C124.046 323.514 124.43 327.272 125.142 329.931C128.445 342.282 136.665 352.421 147.855 357.946C154.094 361.026 159.869 362.296 167.399 362.244L173.7 362.201L178.748 360.699C192.28 356.674 202.658 346.784 207.18 333.604L208.979 328.356L208.974 310.71L207.033 305.279C202.239 291.862 191.096 281.37 178.067 278.005ZM438.733 278.278C433.934 282.751 431.009 296.145 431.032 313.546C431.056 331.658 434.326 345.151 439.515 348.552C441.563 349.894 445.129 349.885 447.192 348.532C454.468 343.763 457.486 309.926 452.461 289.46C451.092 283.885 449.86 281.187 447.56 278.727L445.938 276.994H440.111L438.733 278.278ZM24.4209 279.123C22.1378 281.545 20.2791 286.655 18.6475 294.998L17.5479 300.626L17.5039 312.286C17.4378 329.984 19.9175 342.561 24.4131 347.33L26.4287 349.468H29.207C30.7346 349.468 32.61 349.029 33.375 348.494C35.6537 346.897 37.8676 342.434 39.6543 335.832L41.3359 329.617L41.4004 298.736L40.2666 293.476C38.7307 286.352 36.9188 281.727 34.6553 279.148L32.7646 276.994H26.4287L24.4209 279.123ZM170.44 304.091C178.566 302.392 187.08 306.441 190.865 313.804L192.514 317.012L192.56 325.835L191.076 329.162C189.253 333.252 184.554 337.634 180.514 339.011C171.62 342.042 162.053 338.062 157.918 329.608L156.24 326.177L156.487 321.28C156.774 315.608 158.05 312.5 161.519 309.031C164.295 306.253 166.841 304.844 170.44 304.091ZM295.573 304.29C306.659 301.182 317.873 309.956 317.873 321.739V325.835L316.418 329.162C314.571 333.385 309.903 337.668 305.579 339.104C297.005 341.953 287.686 337.899 283.566 329.527L282.06 326.465L282.091 316.997L283.55 314.168C286.171 309.084 290.157 305.809 295.573 304.29ZM174.488 321.805C174.495 321.799 174.502 321.793 174.508 321.787C174.502 321.784 174.496 321.781 174.49 321.779C174.49 321.787 174.489 321.796 174.488 321.805ZM260.503 127.801C250.552 124.647 236.29 123.265 226.469 124.502C221.223 125.164 213.061 127.107 209.892 128.448L207.72 129.367L210.555 130.615C216.512 133.237 227.849 135.199 236.998 135.192C245.668 135.185 257.852 132.847 262.708 130.257L264.776 129.156L260.503 127.801ZM236.735 16.2866C233.598 16.1971 230.322 16.3565 229.455 16.6401C223.015 18.7513 218.207 22.9572 215.142 29.1616L212.763 33.977L212.812 44.7602L214.237 48.3539C217.065 55.4804 224.274 61.2057 232.267 62.6703L236.023 63.3588L239.787 62.6752C249.925 60.8361 257.287 53.3477 259.08 43.0483L259.792 38.9565L259.141 35.4321C257.763 27.9742 252.87 21.5528 246.007 18.1938L242.44 16.4487L236.735 16.2866Z" 
fill="#14100C"/>
</svg>
